<svg width="226" height="392" viewBox="0 0 226 392" fill="none" xmlns="http://www.w3.org/2000/svg">
<rect x="7.5" y="7.5" width="211" height="377" rx="42.5" fill="#221D0F"/>
<path d="M71.5 7L154.5 7V16C154.5 27.0457 145.546 36 134.5 36H91.5C80.4543 36 71.5 27.0457 71.5 16V7Z" fill="black"/>
<path d="M79.169 108.545V134H72.2585V114.909H72.1094L66.5412 118.24V112.374L72.8054 108.545H79.169ZM96.8741 108.545V134H89.9636V114.909H89.8145L84.2463 118.24V112.374L90.5105 108.545H96.8741ZM105.879 131.241C104.918 131.241 104.093 130.905 103.406 130.234C102.726 129.555 102.391 128.73 102.399 127.761C102.391 126.816 102.726 126.008 103.406 125.337C104.093 124.666 104.918 124.33 105.879 124.33C106.79 124.33 107.594 124.666 108.29 125.337C108.994 126.008 109.351 126.816 109.359 127.761C109.351 128.407 109.181 128.995 108.849 129.526C108.526 130.048 108.104 130.466 107.582 130.781C107.06 131.087 106.492 131.241 105.879 131.241ZM105.879 119.011C104.918 119.011 104.093 118.675 103.406 118.004C102.726 117.324 102.391 116.5 102.399 115.531C102.391 114.586 102.726 113.778 103.406 113.107C104.093 112.436 104.918 112.1 105.879 112.1C106.79 112.1 107.594 112.436 108.29 113.107C108.994 113.778 109.351 114.586 109.359 115.531C109.351 116.177 109.181 116.765 108.849 117.295C108.526 117.817 108.104 118.236 107.582 118.551C107.06 118.857 106.492 119.011 105.879 119.011ZM124.125 134.696C121.813 134.688 119.816 134.153 118.134 133.093C116.452 132.032 115.155 130.503 114.244 128.506C113.332 126.509 112.881 124.115 112.889 121.322C112.897 118.522 113.353 116.144 114.256 114.188C115.167 112.233 116.46 110.745 118.134 109.726C119.816 108.707 121.813 108.197 124.125 108.197C126.436 108.197 128.433 108.711 130.115 109.739C131.797 110.758 133.094 112.245 134.006 114.201C134.917 116.156 135.369 118.53 135.36 121.322C135.36 124.131 134.905 126.534 133.993 128.531C133.082 130.528 131.785 132.057 130.103 133.118C128.429 134.17 126.436 134.696 124.125 134.696ZM124.125 129.078C125.318 129.078 126.296 128.457 127.058 127.214C127.828 125.963 128.21 123.999 128.201 121.322C128.201 119.574 128.027 118.145 127.679 117.034C127.331 115.924 126.851 115.104 126.238 114.574C125.624 114.035 124.92 113.766 124.125 113.766C122.931 113.766 121.958 114.371 121.204 115.58C120.45 116.79 120.065 118.704 120.048 121.322C120.04 123.104 120.21 124.571 120.558 125.722C120.906 126.866 121.386 127.711 121.999 128.258C122.621 128.805 123.329 129.078 124.125 129.078ZM148.796 134.348C146.841 134.348 145.105 134.004 143.588 133.316C142.08 132.62 140.891 131.663 140.021 130.445C139.16 129.227 138.72 127.827 138.704 126.244H145.415C145.44 127.123 145.78 127.823 146.435 128.345C147.098 128.867 147.885 129.128 148.796 129.128C149.5 129.128 150.122 128.979 150.661 128.68C151.199 128.374 151.622 127.943 151.928 127.388C152.235 126.833 152.384 126.186 152.376 125.449C152.384 124.703 152.235 124.057 151.928 123.51C151.622 122.955 151.199 122.528 150.661 122.23C150.122 121.923 149.5 121.77 148.796 121.77C148.067 121.77 147.392 121.948 146.77 122.304C146.157 122.652 145.705 123.137 145.415 123.759L139.35 122.565L140.344 108.545H157.447V114.064H146.012L145.515 119.682H145.664C146.062 118.911 146.75 118.273 147.727 117.768C148.705 117.254 149.84 116.997 151.133 116.997C152.649 116.997 154 117.349 155.185 118.054C156.378 118.758 157.318 119.732 158.006 120.974C158.702 122.209 159.046 123.634 159.038 125.25C159.046 127.023 158.623 128.598 157.77 129.973C156.925 131.34 155.736 132.413 154.203 133.192C152.67 133.963 150.868 134.348 148.796 134.348Z" fill="#3B321A"/>
<rect x="65" y="186" width="96" height="29" rx="10" fill="#3A321B"/>
<path d="M84.4112 197.306C84.3615 196.759 84.1403 196.334 83.7475 196.031C83.3597 195.723 82.8054 195.569 82.0845 195.569C81.6072 195.569 81.2095 195.631 80.8913 195.755C80.5732 195.879 80.3345 196.051 80.1754 196.27C80.0163 196.483 79.9343 196.729 79.9293 197.008C79.9194 197.237 79.9641 197.438 80.0636 197.612C80.168 197.786 80.3171 197.94 80.511 198.074C80.7099 198.203 80.9485 198.318 81.2269 198.417C81.5053 198.517 81.8185 198.604 82.1665 198.678L83.479 198.977C84.2347 199.141 84.9009 199.359 85.4776 199.633C86.0593 199.906 86.5465 200.232 86.9393 200.61C87.337 200.988 87.6378 201.423 87.8416 201.915C88.0455 202.407 88.1499 202.959 88.1548 203.57C88.1499 204.535 87.9063 205.363 87.424 206.054C86.9418 206.745 86.2482 207.274 85.3434 207.642C84.4435 208.01 83.3572 208.194 82.0845 208.194C80.8068 208.194 79.6932 208.002 78.7436 207.62C77.794 207.237 77.0558 206.655 76.5288 205.875C76.0018 205.094 75.7308 204.107 75.7159 202.914H79.2507C79.2805 203.406 79.4123 203.816 79.646 204.145C79.8796 204.473 80.2003 204.721 80.608 204.89C81.0206 205.059 81.4979 205.144 82.0398 205.144C82.5369 205.144 82.9595 205.077 83.3075 204.942C83.6605 204.808 83.9315 204.622 84.1204 204.383C84.3093 204.145 84.4063 203.871 84.4112 203.563C84.4063 203.275 84.3168 203.028 84.1428 202.825C83.9688 202.616 83.7003 202.437 83.3374 202.288C82.9794 202.134 82.522 201.992 81.9652 201.863L80.3693 201.49C79.0469 201.186 78.0053 200.697 77.2447 200.021C76.484 199.339 76.1062 198.42 76.1112 197.261C76.1062 196.317 76.3597 195.489 76.8718 194.778C77.3839 194.067 78.0923 193.513 78.9972 193.115C79.902 192.717 80.9336 192.518 82.092 192.518C83.2752 192.518 84.3018 192.72 85.1719 193.123C86.0469 193.52 86.7255 194.08 87.2077 194.8C87.69 195.521 87.9361 196.357 87.946 197.306H84.4112ZM89.5195 195.725V192.727H102.428V195.725H97.7972V208H94.158V195.725H89.5195ZM113.471 192.727H117.155V202.578C117.155 203.717 116.884 204.709 116.342 205.554C115.8 206.394 115.044 207.045 114.075 207.508C113.105 207.965 111.979 208.194 110.697 208.194C109.399 208.194 108.266 207.965 107.296 207.508C106.327 207.045 105.573 206.394 105.036 205.554C104.5 204.709 104.231 203.717 104.231 202.578V192.727H107.922V202.258C107.922 202.785 108.037 203.255 108.266 203.667C108.499 204.08 108.825 204.403 109.242 204.637C109.66 204.87 110.145 204.987 110.697 204.987C111.248 204.987 111.731 204.87 112.143 204.637C112.561 204.403 112.887 204.08 113.12 203.667C113.354 203.255 113.471 202.785 113.471 202.258V192.727ZM125.114 208H119.468V192.727H125.106C126.662 192.727 128.002 193.033 129.126 193.645C130.254 194.251 131.124 195.126 131.736 196.27C132.347 197.408 132.653 198.77 132.653 200.356C132.653 201.947 132.347 203.314 131.736 204.458C131.129 205.601 130.262 206.479 129.133 207.09C128.005 207.697 126.665 208 125.114 208ZM123.16 204.853H124.972C125.827 204.853 126.55 204.709 127.142 204.42C127.739 204.127 128.189 203.652 128.492 202.996C128.8 202.335 128.954 201.455 128.954 200.356C128.954 199.257 128.8 198.382 128.492 197.731C128.184 197.075 127.729 196.603 127.127 196.314C126.531 196.021 125.795 195.874 124.92 195.874H123.16V204.853ZM133.043 192.727H137.167L140.396 199.118H140.53L143.759 192.727H147.883L142.297 202.899V208H138.628V202.899L133.043 192.727Z" fill="#CC9C21"/>
<rect x="7.5" y="7.5" width="211" height="377" rx="42.5" stroke="black" stroke-width="15"/>
</svg>
