<svg width="226" height="392" viewBox="0 0 226 392" fill="none" xmlns="http://www.w3.org/2000/svg">
<rect x="7.5" y="7.5" width="211" height="377" rx="42.5" fill="#221D0F"/>
<path d="M71.5 7L154.5 7V16C154.5 27.0457 145.546 36 134.5 36H91.5C80.4543 36 71.5 27.0457 71.5 16V7Z" fill="black"/>
<path d="M79.169 108.545V134H72.2585V114.909H72.1094L66.5412 118.24V112.374L72.8054 108.545H79.169ZM96.8741 108.545V134H89.9636V114.909H89.8145L84.2463 118.24V112.374L90.5105 108.545H96.8741ZM105.879 131.241C104.918 131.241 104.093 130.905 103.406 130.234C102.726 129.555 102.391 128.73 102.399 127.761C102.391 126.816 102.726 126.008 103.406 125.337C104.093 124.666 104.918 124.33 105.879 124.33C106.79 124.33 107.594 124.666 108.29 125.337C108.994 126.008 109.351 126.816 109.359 127.761C109.351 128.407 109.181 128.995 108.849 129.526C108.526 130.048 108.104 130.466 107.582 130.781C107.06 131.087 106.492 131.241 105.879 131.241ZM105.879 119.011C104.918 119.011 104.093 118.675 103.406 118.004C102.726 117.324 102.391 116.5 102.399 115.531C102.391 114.586 102.726 113.778 103.406 113.107C104.093 112.436 104.918 112.1 105.879 112.1C106.79 112.1 107.594 112.436 108.29 113.107C108.994 113.778 109.351 114.586 109.359 115.531C109.351 116.177 109.181 116.765 108.849 117.295C108.526 117.817 108.104 118.236 107.582 118.551C107.06 118.857 106.492 119.011 105.879 119.011ZM124.125 134.696C121.813 134.688 119.816 134.153 118.134 133.093C116.452 132.032 115.155 130.503 114.244 128.506C113.332 126.509 112.881 124.115 112.889 121.322C112.897 118.522 113.353 116.144 114.256 114.188C115.167 112.233 116.46 110.745 118.134 109.726C119.816 108.707 121.813 108.197 124.125 108.197C126.436 108.197 128.433 108.711 130.115 109.739C131.797 110.758 133.094 112.245 134.006 114.201C134.917 116.156 135.369 118.53 135.36 121.322C135.36 124.131 134.905 126.534 133.993 128.531C133.082 130.528 131.785 132.057 130.103 133.118C128.429 134.17 126.436 134.696 124.125 134.696ZM124.125 129.078C125.318 129.078 126.296 128.457 127.058 127.214C127.828 125.963 128.21 123.999 128.201 121.322C128.201 119.574 128.027 118.145 127.679 117.034C127.331 115.924 126.851 115.104 126.238 114.574C125.624 114.035 124.92 113.766 124.125 113.766C122.931 113.766 121.958 114.371 121.204 115.58C120.45 116.79 120.065 118.704 120.048 121.322C120.04 123.104 120.21 124.571 120.558 125.722C120.906 126.866 121.386 127.711 121.999 128.258C122.621 128.805 123.329 129.078 124.125 129.078ZM148.796 134.348C146.841 134.348 145.105 134.004 143.588 133.316C142.08 132.62 140.891 131.663 140.021 130.445C139.16 129.227 138.72 127.827 138.704 126.244H145.415C145.44 127.123 145.78 127.823 146.435 128.345C147.098 128.867 147.885 129.128 148.796 129.128C149.5 129.128 150.122 128.979 150.661 128.68C151.199 128.374 151.622 127.943 151.928 127.388C152.235 126.833 152.384 126.186 152.376 125.449C152.384 124.703 152.235 124.057 151.928 123.51C151.622 122.955 151.199 122.528 150.661 122.23C150.122 121.923 149.5 121.77 148.796 121.77C148.067 121.77 147.392 121.948 146.77 122.304C146.157 122.652 145.705 123.137 145.415 123.759L139.35 122.565L140.344 108.545H157.447V114.064H146.012L145.515 119.682H145.664C146.062 118.911 146.75 118.273 147.727 117.768C148.705 117.254 149.84 116.997 151.133 116.997C152.649 116.997 154 117.349 155.185 118.054C156.378 118.758 157.318 119.732 158.006 120.974C158.702 122.209 159.046 123.634 159.038 125.25C159.046 127.023 158.623 128.598 157.77 129.973C156.925 131.34 155.736 132.413 154.203 133.192C152.67 133.963 150.868 134.348 148.796 134.348Z" fill="#3B321A"/>
<path d="M85.4112 195.306C85.3615 194.759 85.1403 194.334 84.7475 194.031C84.3597 193.723 83.8054 193.569 83.0845 193.569C82.6072 193.569 82.2095 193.631 81.8913 193.755C81.5732 193.879 81.3345 194.051 81.1754 194.27C81.0163 194.483 80.9343 194.729 80.9293 195.008C80.9194 195.237 80.9641 195.438 81.0636 195.612C81.168 195.786 81.3171 195.94 81.511 196.074C81.7099 196.203 81.9485 196.318 82.2269 196.417C82.5053 196.517 82.8185 196.604 83.1665 196.678L84.479 196.977C85.2347 197.141 85.9009 197.359 86.4776 197.633C87.0593 197.906 87.5465 198.232 87.9393 198.61C88.337 198.988 88.6378 199.423 88.8416 199.915C89.0455 200.407 89.1499 200.959 89.1548 201.57C89.1499 202.535 88.9063 203.363 88.424 204.054C87.9418 204.745 87.2482 205.274 86.3434 205.642C85.4435 206.01 84.3572 206.194 83.0845 206.194C81.8068 206.194 80.6932 206.002 79.7436 205.62C78.794 205.237 78.0558 204.655 77.5288 203.875C77.0018 203.094 76.7308 202.107 76.7159 200.914H80.2507C80.2805 201.406 80.4123 201.816 80.646 202.145C80.8796 202.473 81.2003 202.721 81.608 202.89C82.0206 203.059 82.4979 203.144 83.0398 203.144C83.5369 203.144 83.9595 203.077 84.3075 202.942C84.6605 202.808 84.9315 202.622 85.1204 202.383C85.3093 202.145 85.4063 201.871 85.4112 201.563C85.4063 201.275 85.3168 201.028 85.1428 200.825C84.9688 200.616 84.7003 200.437 84.3374 200.288C83.9794 200.134 83.522 199.992 82.9652 199.863L81.3693 199.49C80.0469 199.186 79.0053 198.697 78.2447 198.021C77.484 197.339 77.1062 196.42 77.1112 195.261C77.1062 194.317 77.3597 193.489 77.8718 192.778C78.3839 192.067 79.0923 191.513 79.9972 191.115C80.902 190.717 81.9336 190.518 83.092 190.518C84.2752 190.518 85.3018 190.72 86.1719 191.123C87.0469 191.52 87.7255 192.08 88.2077 192.8C88.69 193.521 88.9361 194.357 88.946 195.306H85.4112ZM90.5195 193.725V190.727H103.428V193.725H98.7972V206H95.158V193.725H90.5195ZM114.471 190.727H118.155V200.578C118.155 201.717 117.884 202.709 117.342 203.554C116.8 204.394 116.044 205.045 115.075 205.508C114.105 205.965 112.979 206.194 111.697 206.194C110.399 206.194 109.266 205.965 108.296 205.508C107.327 205.045 106.573 204.394 106.036 203.554C105.5 202.709 105.231 201.717 105.231 200.578V190.727H108.922V200.258C108.922 200.785 109.037 201.255 109.266 201.667C109.499 202.08 109.825 202.403 110.242 202.637C110.66 202.87 111.145 202.987 111.697 202.987C112.248 202.987 112.731 202.87 113.143 202.637C113.561 202.403 113.887 202.08 114.12 201.667C114.354 201.255 114.471 200.785 114.471 200.258V190.727ZM126.114 206H120.468V190.727H126.106C127.662 190.727 129.002 191.033 130.126 191.645C131.254 192.251 132.124 193.126 132.736 194.27C133.347 195.408 133.653 196.77 133.653 198.356C133.653 199.947 133.347 201.314 132.736 202.458C132.129 203.601 131.262 204.479 130.133 205.09C129.005 205.697 127.665 206 126.114 206ZM124.16 202.853H125.972C126.827 202.853 127.55 202.709 128.142 202.42C128.739 202.127 129.189 201.652 129.492 200.996C129.8 200.335 129.954 199.455 129.954 198.356C129.954 197.257 129.8 196.382 129.492 195.731C129.184 195.075 128.729 194.603 128.127 194.314C127.531 194.021 126.795 193.874 125.92 193.874H124.16V202.853ZM134.043 190.727H138.167L141.396 197.118H141.53L144.759 190.727H148.883L143.297 200.899V206H139.628V200.899L134.043 190.727Z" fill="#CC9C21"/>
<rect x="7.5" y="7.5" width="211" height="377" rx="42.5" stroke="black" stroke-width="15"/>
</svg>
