<svg width="226" height="392" viewBox="0 0 226 392" fill="none" xmlns="http://www.w3.org/2000/svg">
<rect x="7.5" y="7.5" width="211" height="377" rx="42.5" fill="#221D0F"/>
<path d="M71.5 7L154.5 7V16C154.5 27.0457 145.546 36 134.5 36H91.5C80.4543 36 71.5 27.0457 71.5 16V7Z" fill="black"/>
<rect x="66" y="211" width="94" height="29" rx="10" fill="#3A321B"/>
<path d="M85.4112 222.306C85.3615 221.759 85.1403 221.334 84.7475 221.031C84.3597 220.723 83.8054 220.569 83.0845 220.569C82.6072 220.569 82.2095 220.631 81.8913 220.755C81.5732 220.879 81.3345 221.051 81.1754 221.27C81.0163 221.483 80.9343 221.729 80.9293 222.008C80.9194 222.237 80.9641 222.438 81.0636 222.612C81.168 222.786 81.3171 222.94 81.511 223.074C81.7099 223.203 81.9485 223.318 82.2269 223.417C82.5053 223.517 82.8185 223.604 83.1665 223.678L84.479 223.977C85.2347 224.141 85.9009 224.359 86.4776 224.633C87.0593 224.906 87.5465 225.232 87.9393 225.61C88.337 225.988 88.6378 226.423 88.8416 226.915C89.0455 227.407 89.1499 227.959 89.1548 228.57C89.1499 229.535 88.9063 230.363 88.424 231.054C87.9418 231.745 87.2482 232.274 86.3434 232.642C85.4435 233.01 84.3572 233.194 83.0845 233.194C81.8068 233.194 80.6932 233.002 79.7436 232.62C78.794 232.237 78.0558 231.655 77.5288 230.875C77.0018 230.094 76.7308 229.107 76.7159 227.914H80.2507C80.2805 228.406 80.4123 228.816 80.646 229.145C80.8796 229.473 81.2003 229.721 81.608 229.89C82.0206 230.059 82.4979 230.144 83.0398 230.144C83.5369 230.144 83.9595 230.077 84.3075 229.942C84.6605 229.808 84.9315 229.622 85.1204 229.383C85.3093 229.145 85.4063 228.871 85.4112 228.563C85.4063 228.275 85.3168 228.028 85.1428 227.825C84.9688 227.616 84.7003 227.437 84.3374 227.288C83.9794 227.134 83.522 226.992 82.9652 226.863L81.3693 226.49C80.0469 226.186 79.0053 225.697 78.2447 225.021C77.484 224.339 77.1062 223.42 77.1112 222.261C77.1062 221.317 77.3597 220.489 77.8718 219.778C78.3839 219.067 79.0923 218.513 79.9972 218.115C80.902 217.717 81.9336 217.518 83.092 217.518C84.2752 217.518 85.3018 217.72 86.1719 218.123C87.0469 218.52 87.7255 219.08 88.2077 219.8C88.69 220.521 88.9361 221.357 88.946 222.306H85.4112ZM90.5195 220.725V217.727H103.428V220.725H98.7972V233H95.158V220.725H90.5195ZM114.471 217.727H118.155V227.578C118.155 228.717 117.884 229.709 117.342 230.554C116.8 231.394 116.044 232.045 115.075 232.508C114.105 232.965 112.979 233.194 111.697 233.194C110.399 233.194 109.266 232.965 108.296 232.508C107.327 232.045 106.573 231.394 106.036 230.554C105.5 229.709 105.231 228.717 105.231 227.578V217.727H108.922V227.258C108.922 227.785 109.037 228.255 109.266 228.667C109.499 229.08 109.825 229.403 110.242 229.637C110.66 229.87 111.145 229.987 111.697 229.987C112.248 229.987 112.731 229.87 113.143 229.637C113.561 229.403 113.887 229.08 114.12 228.667C114.354 228.255 114.471 227.785 114.471 227.258V217.727ZM126.114 233H120.468V217.727H126.106C127.662 217.727 129.002 218.033 130.126 218.645C131.254 219.251 132.124 220.126 132.736 221.27C133.347 222.408 133.653 223.77 133.653 225.356C133.653 226.947 133.347 228.314 132.736 229.458C132.129 230.601 131.262 231.479 130.133 232.09C129.005 232.697 127.665 233 126.114 233ZM124.16 229.853H125.972C126.827 229.853 127.55 229.709 128.142 229.42C128.739 229.127 129.189 228.652 129.492 227.996C129.8 227.335 129.954 226.455 129.954 225.356C129.954 224.257 129.8 223.382 129.492 222.731C129.184 222.075 128.729 221.603 128.127 221.314C127.531 221.021 126.795 220.874 125.92 220.874H124.16V229.853ZM134.043 217.727H138.167L141.396 224.118H141.53L144.759 217.727H148.883L143.297 227.899V233H139.628V227.899L134.043 217.727Z" fill="#CC9C21"/>
<rect x="7.5" y="7.5" width="211" height="377" rx="42.5" stroke="black" stroke-width="15"/>
</svg>
